<svg version="1.1" xmlns="http://www.w3.org/2000/svg" xmlns:xlink="http://www.w3.org/1999/xlink" width="19.18071" height="19.63165" viewBox="0,0,19.18071,19.63165"><g transform="translate(-230.90964,-169.68417)"><g data-paper-data="{&quot;isPaintingLayer&quot;:true}" fill-rule="nonzero" stroke-miterlimit="10" stroke-dasharray="" stroke-dashoffset="0" style="mix-blend-mode: normal"><path d="M233.34144,184.36745c2.19951,-4.9963 6.71346,-13.68327 7.50027,-13.68327l6.47228,14.12261c0.81286,0 1.50631,0.77133 1.77638,1.85535" fill="none" stroke="#ffffff" stroke-width="2" stroke-linecap="round" stroke-linejoin="round"/><path d="M246.07645,181.43888c0.00908,0.04541 0.01716,0.09015 0.02426,0.13422c0.33811,-0.07685 2.45851,-0.42099 2.91175,2.9041c0.49287,3.61588 -1.9715,4.33906 -1.9715,4.33906l-1.95124,0.49957c-3.88896,0 -7.77792,0 -11.66688,0c0,0 -2.51318,0 -2.51318,-3.68749c0,-3.6875 2.51318,-3.6875 2.51318,-3.6875c0.3174,0 0.63479,0 0.95219,0c-0.00002,-0.00389 -0.00002,-0.00777 -0.00002,-0.01167c0,-0.96723 0.54929,-1.80618 1.35294,-2.22191c-0.19126,-0.12919 -0.32492,-0.29073 -0.33949,-0.51919c-0.15922,-2.49465 1.66442,-4.46774 2.98656,-6.2589c0,0 1.5,-2 3.5,-0.5c1.51615,1.13711 1.02093,2.56156 0.69258,3.18423c0.05171,0.06766 0.09784,0.13366 0.13857,0.19597l0.24004,-0.05868c0.36903,0.94467 1.00332,1.82514 1.1071,2.83401c0.02976,0.28934 0.07138,0.59079 0.1134,0.89781c0.73261,0.12676 1.63319,0.57354 1.90975,1.95637z" fill="#ffffff" stroke="none" stroke-width="0.5" stroke-linecap="butt" stroke-linejoin="miter"/></g></g></svg>